<?xml version="1.0" encoding="utf-8"?>
<!-- Generator: Adobe Illustrator 25.3.1, SVG Export Plug-In . SVG Version: 6.00 Build 0)  -->
<svg version="1.1" id="Layer_1" xmlns="http://www.w3.org/2000/svg" xmlns:xlink="http://www.w3.org/1999/xlink" x="0px" y="0px"
	 viewBox="0 0 513.4 134.3" style="enable-background:new 0 0 513.4 134.3;" xml:space="preserve">
<style type="text/css">
	.st0{fill:#26408E;}
	.st1{fill:#EF6F29;}
	.st2{fill:#FFFFFF;}
</style>
<g>
	<path class="st0" d="M172.3,72.3H148v-0.5c2.6,0,6.7-1.3,6.9-4.3c0.1-1.7-0.5-3.2-1-4.2l-4.4-10l-16.6,0l-3.3,7.9
		c-1.8,4.9-1.5,5.8-1.3,6.8c0.5,2.5,4.5,3.9,6,3.9v0.4l-17,0l0-0.4c1.1-0.1,4.3-0.9,6.1-2.9c1.6-1.8,3.9-6.7,5.3-9.8L143,24.9h2.6
		l17.1,39.9c2.3,5.2,6.5,6.6,9.6,6.9L172.3,72.3z M148.7,51.4l-7.4-17.7l-7.5,17.7L148.7,51.4z"/>
	<path class="st0" d="M235.7,72.4l-12.5,0c0,0-5.3-10.7-8-16.3c-2.5-5.1-5.7-6-5.7-6l-6.1,0.3l0,14.4c0,4.8,1.9,6.7,7.6,7v0.6h-24
		v-0.6c5.8-0.4,7.9-3,7.9-7.8V32.8c0-5.3-2.8-6.6-7.9-7.1l0-0.8l21.7,0c6.4,0,19.4,0.3,19.3,12.2c-0.1,9-8.8,11.1-11.6,11.5
		c0,0,3,0.9,5.5,4.9c1,1.6,7.6,14.2,7.6,14.2c1.8,2.5,3.3,4,6.2,4.1V72.4z M203.4,48.4c7.5,0.1,15.8-1.8,15.8-11
		c0-9.4-5.5-11.9-15.8-11.7c0,0,0,2.3,0,4.4L203.4,48.4z"/>
	<path class="st0" d="M295.2,72.4l-44.1,0l0-0.7c4.6-0.3,7.5-2.9,7.4-7.4V32.4c0-5.7-3.2-6.5-7.6-6.7l0-0.8h39.8l0.6,11.4l-0.6-0.1
		c-1.1-6.4-5.9-10.6-12.7-10.5l-11.2,0c0,0,0,1.3,0,4l0,16.9l3.7,0c6.4,0,8.1-3.2,8.9-8.3l0.9,0.1l-0.1,18.8l-0.8,0
		c-0.9-5.8-3.5-9.4-8.2-9.5l-4.3,0l0,15c0,2.4,1,8.6,11.8,8.6c9,0,14-1.3,16-12.8h1.3L295.2,72.4z"/>
	<path class="st0" d="M335.9,25.6c-4.9,0.3-7.9,1.5-7.9,7.2l0.2,28.4c0,2.9,1.6,10,8.7,10.1c10.8,0.2,17.2-0.2,19.8-13.5h0.6
		l-0.3,14.6h-44.6v-0.6c4.6-0.3,7.6-1.6,7.6-7.2V32.7c0-5.7-3.1-6.8-7.6-7.1l-0.2-0.7l23.8-0.1V25.6z"/>
	<path class="st0" d="M373.1,72c6.1-0.1,7.2-4.2,7.1-7.4V32.8c0-5.3-1.2-6.9-7.1-7.2V25l23.3,0l-0.1,0.6c-5.2,0.2-7.3,3.5-7.4,7.3
		l0.1,31.8c0,5.6,2.1,7.1,7.4,7.2l0,0.5l-23.2,0L373.1,72z"/>
	<path class="st0" d="M466.1,72.4h-24.3v-0.5c2.6,0,6.8-1.4,6.9-4.3c0.1-1.7-0.5-3.2-1-4.2l-4.3-9.8l-16.7-0.2l-3.3,7.9
		c-1.8,4.9-1.5,5.8-1.3,6.8c0.5,2.2,4.5,3.8,6,3.8l0,0.5h-16.9V72c1.7-0.1,4.8-1.3,6.1-2.8c1.6-1.8,3.9-6.7,5.3-9.8l14.2-34.5h2.5
		l17.1,40c2.3,5.2,6.5,6.6,9.6,6.9L466.1,72.4z M442.5,51.5L435,33.8l-7.5,17.7L442.5,51.5z"/>
	<polygon class="st1" points="24.4,99 504.7,99.6 490.8,127.4 10.3,127.4 	"/>
	<path class="st0" d="M489.5,76.2l-385.4,0l-25.8-31l26.9-24.8c8.3-6.7,10.6-9.3,19.8-10.1l0.1-1.9l-35.8,0l0,1.7
		c7.5,0.3,12.7,1.2,12.7,5.3c0,5.2-6.1,10.7-40.8,41.9V24c0.5-7.2,5.2-14.1,16.4-13.9l0.1-1.6H27l0.1,1.5
		c8.7,0.5,16.5,4.5,16.8,14.2l0,66c0,10.4-4.8,16.3-16.8,16.9l0.1,1.6l50.2,0l0.1-1.5c-10.8-0.3-16.3-7.1-16.4-16.9l0.1-29.1
		l5.4-4.9l16.2,19.2c5.6,6.5,18,21.7,17.9,26.6c0,2.3-3.4,4.9-11.6,5.2l0,1.4l37.2,0l347.5,0L489.5,76.2z"/>
	<rect x="140.6" y="80.6" class="st2" width="4.7" height="23.5"/>
	<polygon class="st2" points="250.9,104.1 250.9,80.6 255.9,80.7 256,91.5 265.8,80.7 271.7,80.6 264.4,88.7 271.6,104.2 266,104.1 
		260.8,92.6 256.1,98.1 256.1,104.1 	"/>
	<path class="st2" d="M309.2,80.8h4.7v12.7c0,2,0.1,3.3,0.2,3.9c0.2,1,0.7,1.7,1.5,2.3c0.8,0.6,1.8,0.9,3.1,0.9c1.3,0,2.4-0.3,3-0.8
		c0.7-0.5,1.1-1.2,1.2-2c0.1-0.8,0.2-2.1,0.2-4v-13h4.7v12.4c0,2.8-0.1,4.8-0.4,6c-0.3,1.2-0.7,2.1-1.4,3c-0.7,0.8-1.6,1.4-2.8,1.9
		c-1.2,0.5-2.7,0.7-4.5,0.7c-2.2,0-3.9-0.3-5.1-0.8c-1.2-0.5-2.1-1.2-2.7-2c-0.7-0.8-1.1-1.7-1.3-2.6c-0.3-1.3-0.5-3.3-0.5-6V80.8z"
		/>
	<polygon class="st2" points="367.4,104.1 367.4,80.8 372.9,80.8 382.5,95.7 382.5,80.8 386.9,80.8 386.9,104.3 382.1,104.3 
		371.8,87.8 371.8,104.1 	"/>
	<path class="st2" d="M447.3,103.8h-5.2l-2.1-5.3h-9.4l-1.9,5.3h-5l9.2-23.5h5L447.3,103.8z M438.6,94.5l-3.2-8.7l-3.2,8.7H438.6z"
		/>
	<polygon class="st2" points="192.7,104.2 192.7,80.6 197.8,80.6 197.7,91.6 207.5,80.7 213.4,80.6 206.1,88.7 213.3,104.3 
		207.7,104.2 202.5,92.6 197.8,98.1 197.8,104.1 	"/>
</g>
</svg>
